<?xml version="1.0" standalone="no"?>
<!DOCTYPE svg PUBLIC "-//W3C//DTD SVG 20010904//EN"
 "http://www.w3.org/TR/2001/REC-SVG-20010904/DTD/svg10.dtd">
<svg version="1.0" xmlns="http://www.w3.org/2000/svg"
 width="225.000000pt" height="225.000000pt" viewBox="0 0 225.000000 225.000000"
 preserveAspectRatio="xMidYMid meet">

<g transform="translate(0.000000,225.000000) scale(0.100000,-0.100000)"
fill="#05C9A1" stroke="none">
<path d="M482 1955 c-97 -30 -171 -111 -192 -208 -8 -36 -10 -237 -8 -652 3
-587 3 -601 24 -646 27 -58 85 -116 143 -143 45 -21 55 -21 676 -21 621 0 631
0 676 21 58 27 116 85 143 143 21 45 21 55 21 676 0 621 0 631 -21 676 -27 58
-85 116 -143 143 -45 21 -57 21 -661 23 -496 2 -623 -1 -658 -12z m1269 -204
l29 -29 0 -597 0 -597 -29 -29 -29 -29 -597 0 -597 0 -29 29 -29 29 0 597 0
597 29 29 29 29 597 0 597 0 29 -29z"/>
<path d="M723 1571 c-99 -62 -76 -221 37 -251 139 -37 234 135 130 235 -40 38
-119 46 -167 16z"/>
<path d="M1150 1248 c-62 -134 -124 -267 -137 -296 -14 -29 -28 -50 -33 -47
-4 2 -27 37 -50 77 -24 40 -53 88 -66 106 l-22 34 -136 -227 c-75 -124 -136
-228 -136 -231 0 -2 250 -4 555 -4 305 0 555 2 555 5 0 8 -410 825 -414 825
-2 0 -54 -109 -116 -242z"/>
</g>
</svg>
